<svg xmlns="http://www.w3.org/2000/svg" width="64" height="64" viewBox="0 0 200 200"><title/><path fill="#FFF" stroke="#000" stroke-width="2" stroke-opacity="0.4" d="M75 15H35a20.06 20.06 0 0 0-20 20v40a20.06 20.06 0 0 0 20 20h40a20.06 20.06 0 0 0 20-20V35a20.06 20.06 0 0 0-20-20m0 60H35V35h40Zm0 30H35a20.06 20.06 0 0 0-20 20v40a20.06 20.06 0 0 0 20 20h40a20.06 20.06 0 0 0 20-20v-40a20.06 20.06 0 0 0-20-20m0 60H35v-40h40Zm90-150h-40a20.06 20.06 0 0 0-20 20v40a20.06 20.06 0 0 0 20 20h40a20.06 20.06 0 0 0 20-20V35a20.06 20.06 0 0 0-20-20m0 60h-40V35h40ZM50 65h10a5.38 5.38 0 0 0 5-5V50a5.38 5.38 0 0 0-5-5H50a5.38 5.38 0 0 0-5 5v10a5.38 5.38 0 0 0 5 5m0 90h10a5.38 5.38 0 0 0 5-5v-10a5.38 5.38 0 0 0-5-5H50a5.38 5.38 0 0 0-5 5v10a5.38 5.38 0 0 0 5 5m90-90h10a5.38 5.38 0 0 0 5-5V50a5.38 5.38 0 0 0-5-5h-10a5.38 5.38 0 0 0-5 5v10a5.38 5.38 0 0 0 5 5m-30 80h10a5.38 5.38 0 0 0 5-5v-10a5.38 5.38 0 0 1 5-5h10a5.38 5.38 0 0 0 5-5v-10a5.38 5.38 0 0 0-5-5h-30a5.38 5.38 0 0 0-5 5v30a5.38 5.38 0 0 0 5 5m70-40h-10a5.38 5.38 0 0 0-5 5v30a5.38 5.38 0 0 0 5 5h10a5.38 5.38 0 0 0 5-5v-30a5.38 5.38 0 0 0-5-5m-60 60h-10a5.38 5.38 0 0 0-5 5v10a5.38 5.38 0 0 0 5 5h10a5.38 5.38 0 0 0 5-5v-10a5.38 5.38 0 0 0-5-5m60 0h-10a5.38 5.38 0 0 1-5-5v-10a5.38 5.38 0 0 0-5-5h-30a5.38 5.38 0 0 0-5 5v10a5.38 5.38 0 0 0 5 5h10a5.38 5.38 0 0 1 5 5v10a5.38 5.38 0 0 0 5 5h30a5.38 5.38 0 0 0 5-5v-10a5.38 5.38 0 0 0-5-5"/></svg>